<svg id="visual" viewBox="0 0 900 450" width="900" height="450" xmlns="http://www.w3.org/2000/svg" xmlns:xlink="http://www.w3.org/1999/xlink" version="1.1"><path d="M0 206L21.5 214.2C43 222.3 86 238.7 128.8 239.5C171.7 240.3 214.3 225.7 257.2 224.8C300 224 343 237 385.8 240.8C428.7 244.7 471.3 239.3 514.2 234.3C557 229.3 600 224.7 642.8 227.3C685.7 230 728.3 240 771.2 240C814 240 857 230 878.5 225L900 220L900 451L878.5 451C857 451 814 451 771.2 451C728.3 451 685.7 451 642.8 451C600 451 557 451 514.2 451C471.3 451 428.7 451 385.8 451C343 451 300 451 257.2 451C214.3 451 171.7 451 128.8 451C86 451 43 451 21.5 451L0 451Z" fill="#f46703"></path><path d="M0 302L21.5 286.3C43 270.7 86 239.3 128.8 223C171.7 206.7 214.3 205.3 257.2 209.5C300 213.7 343 223.3 385.8 225.8C428.7 228.3 471.3 223.7 514.2 228C557 232.3 600 245.7 642.8 256.8C685.7 268 728.3 277 771.2 282C814 287 857 288 878.5 288.5L900 289L900 451L878.5 451C857 451 814 451 771.2 451C728.3 451 685.7 451 642.8 451C600 451 557 451 514.2 451C471.3 451 428.7 451 385.8 451C343 451 300 451 257.2 451C214.3 451 171.7 451 128.8 451C86 451 43 451 21.5 451L0 451Z" fill="#f2721e"></path><path d="M0 331L21.5 325.2C43 319.3 86 307.7 128.8 308.2C171.7 308.7 214.3 321.3 257.2 318.3C300 315.3 343 296.7 385.8 286.3C428.7 276 471.3 274 514.2 270.2C557 266.3 600 260.7 642.8 259.5C685.7 258.3 728.3 261.7 771.2 266.8C814 272 857 279 878.5 282.5L900 286L900 451L878.5 451C857 451 814 451 771.2 451C728.3 451 685.7 451 642.8 451C600 451 557 451 514.2 451C471.3 451 428.7 451 385.8 451C343 451 300 451 257.2 451C214.3 451 171.7 451 128.8 451C86 451 43 451 21.5 451L0 451Z" fill="#ef7c30"></path><path d="M0 307L21.5 318.3C43 329.7 86 352.3 128.8 364.5C171.7 376.7 214.3 378.3 257.2 376.2C300 374 343 368 385.8 360.2C428.7 352.3 471.3 342.7 514.2 334C557 325.3 600 317.7 642.8 323C685.7 328.3 728.3 346.7 771.2 347.2C814 347.7 857 330.3 878.5 321.7L900 313L900 451L878.5 451C857 451 814 451 771.2 451C728.3 451 685.7 451 642.8 451C600 451 557 451 514.2 451C471.3 451 428.7 451 385.8 451C343 451 300 451 257.2 451C214.3 451 171.7 451 128.8 451C86 451 43 451 21.5 451L0 451Z" fill="#ec8640"></path><path d="M0 386L21.5 383.8C43 381.7 86 377.3 128.8 374.3C171.7 371.3 214.3 369.7 257.2 376.2C300 382.7 343 397.3 385.8 398.3C428.7 399.3 471.3 386.7 514.2 386.5C557 386.3 600 398.7 642.8 405.2C685.7 411.7 728.3 412.3 771.2 411.8C814 411.3 857 409.7 878.5 408.8L900 408L900 451L878.5 451C857 451 814 451 771.2 451C728.3 451 685.7 451 642.8 451C600 451 557 451 514.2 451C471.3 451 428.7 451 385.8 451C343 451 300 451 257.2 451C214.3 451 171.7 451 128.8 451C86 451 43 451 21.5 451L0 451Z" fill="#e98f4f"></path></svg>