<svg id="visual" viewBox="0 0 900 200" width="900" height="200" xmlns="http://www.w3.org/2000/svg" xmlns:xlink="http://www.w3.org/1999/xlink" version="1.1"><path d="M0 48L21.5 52.3C43 56.7 86 65.3 128.8 66.2C171.7 67 214.3 60 257.2 62.7C300 65.3 343 77.7 385.8 83.2C428.7 88.7 471.3 87.3 514.2 88.7C557 90 600 94 642.8 88.8C685.7 83.7 728.3 69.3 771.2 60.2C814 51 857 47 878.5 45L900 43L900 201L878.5 201C857 201 814 201 771.2 201C728.3 201 685.7 201 642.8 201C600 201 557 201 514.2 201C471.3 201 428.7 201 385.8 201C343 201 300 201 257.2 201C214.3 201 171.7 201 128.8 201C86 201 43 201 21.5 201L0 201Z" fill="#f46703"></path><path d="M0 120L21.5 116.7C43 113.3 86 106.7 128.8 107.8C171.7 109 214.3 118 257.2 115.8C300 113.7 343 100.3 385.8 93.2C428.7 86 471.3 85 514.2 87.3C557 89.7 600 95.3 642.8 97.5C685.7 99.7 728.3 98.3 771.2 94.5C814 90.7 857 84.3 878.5 81.2L900 78L900 201L878.5 201C857 201 814 201 771.2 201C728.3 201 685.7 201 642.8 201C600 201 557 201 514.2 201C471.3 201 428.7 201 385.8 201C343 201 300 201 257.2 201C214.3 201 171.7 201 128.8 201C86 201 43 201 21.5 201L0 201Z" fill="#f6873f"></path><path d="M0 105L21.5 112C43 119 86 133 128.8 135.7C171.7 138.3 214.3 129.7 257.2 125.2C300 120.7 343 120.3 385.8 119C428.7 117.7 471.3 115.3 514.2 117.5C557 119.7 600 126.3 642.8 127.5C685.7 128.7 728.3 124.3 771.2 126.8C814 129.3 857 138.7 878.5 143.3L900 148L900 201L878.5 201C857 201 814 201 771.2 201C728.3 201 685.7 201 642.8 201C600 201 557 201 514.2 201C471.3 201 428.7 201 385.8 201C343 201 300 201 257.2 201C214.3 201 171.7 201 128.8 201C86 201 43 201 21.5 201L0 201Z" fill="#f6a46b"></path><path d="M0 166L21.5 161.7C43 157.3 86 148.7 128.8 149.2C171.7 149.7 214.3 159.3 257.2 161C300 162.7 343 156.3 385.8 154C428.7 151.7 471.3 153.3 514.2 155.2C557 157 600 159 642.8 163C685.7 167 728.3 173 771.2 172.8C814 172.7 857 166.3 878.5 163.2L900 160L900 201L878.5 201C857 201 814 201 771.2 201C728.3 201 685.7 201 642.8 201C600 201 557 201 514.2 201C471.3 201 428.7 201 385.8 201C343 201 300 201 257.2 201C214.3 201 171.7 201 128.8 201C86 201 43 201 21.5 201L0 201Z" fill="#f4bf99"></path></svg>