<svg id="visual" viewBox="0 0 900 200" width="900" height="200" xmlns="http://www.w3.org/2000/svg" xmlns:xlink="http://www.w3.org/1999/xlink" version="1.1"><path d="M0 131L21.5 135.8C43 140.7 86 150.3 128.8 155.2C171.7 160 214.3 160 257.2 157.5C300 155 343 150 385.8 148.8C428.7 147.7 471.3 150.3 514.2 146.8C557 143.3 600 133.7 642.8 134C685.7 134.3 728.3 144.7 771.2 147.2C814 149.7 857 144.3 878.5 141.7L900 139L900 0L878.5 0C857 0 814 0 771.2 0C728.3 0 685.7 0 642.8 0C600 0 557 0 514.2 0C471.3 0 428.7 0 385.8 0C343 0 300 0 257.2 0C214.3 0 171.7 0 128.8 0C86 0 43 0 21.5 0L0 0Z" fill="#f46703"></path><path d="M0 94L21.5 96C43 98 86 102 128.8 103.3C171.7 104.7 214.3 103.3 257.2 104.8C300 106.3 343 110.7 385.8 106.8C428.7 103 471.3 91 514.2 91.2C557 91.3 600 103.7 642.8 103.3C685.7 103 728.3 90 771.2 86.5C814 83 857 89 878.5 92L900 95L900 0L878.5 0C857 0 814 0 771.2 0C728.3 0 685.7 0 642.8 0C600 0 557 0 514.2 0C471.3 0 428.7 0 385.8 0C343 0 300 0 257.2 0C214.3 0 171.7 0 128.8 0C86 0 43 0 21.5 0L0 0Z" fill="#f6873f"></path><path d="M0 79L21.5 80.3C43 81.7 86 84.3 128.8 85.5C171.7 86.7 214.3 86.3 257.2 79.8C300 73.3 343 60.7 385.8 56.8C428.7 53 471.3 58 514.2 59.3C557 60.7 600 58.3 642.8 57C685.7 55.7 728.3 55.3 771.2 57C814 58.7 857 62.3 878.5 64.2L900 66L900 0L878.5 0C857 0 814 0 771.2 0C728.3 0 685.7 0 642.8 0C600 0 557 0 514.2 0C471.3 0 428.7 0 385.8 0C343 0 300 0 257.2 0C214.3 0 171.7 0 128.8 0C86 0 43 0 21.5 0L0 0Z" fill="#f6a46b"></path><path d="M0 28L21.5 28.3C43 28.7 86 29.3 128.8 29C171.7 28.7 214.3 27.3 257.2 27.2C300 27 343 28 385.8 32C428.7 36 471.3 43 514.2 43.3C557 43.7 600 37.3 642.8 38.7C685.7 40 728.3 49 771.2 53.5C814 58 857 58 878.5 58L900 58L900 0L878.5 0C857 0 814 0 771.2 0C728.3 0 685.7 0 642.8 0C600 0 557 0 514.2 0C471.3 0 428.7 0 385.8 0C343 0 300 0 257.2 0C214.3 0 171.7 0 128.8 0C86 0 43 0 21.5 0L0 0Z" fill="#f4bf99"></path></svg>