<svg id="visual" viewBox="0 0 900 450" width="900" height="450" xmlns="http://www.w3.org/2000/svg" xmlns:xlink="http://www.w3.org/1999/xlink" version="1.1"><path d="M0 182L18.8 182.3C37.7 182.7 75.3 183.3 112.8 175.8C150.3 168.3 187.7 152.7 225.2 145.5C262.7 138.3 300.3 139.7 337.8 141.2C375.3 142.7 412.7 144.3 450.2 151C487.7 157.7 525.3 169.3 562.8 166.2C600.3 163 637.7 145 675.2 135.8C712.7 126.7 750.3 126.3 787.8 121.7C825.3 117 862.7 108 881.3 103.5L900 99L900 0L881.3 0C862.7 0 825.3 0 787.8 0C750.3 0 712.7 0 675.2 0C637.7 0 600.3 0 562.8 0C525.3 0 487.7 0 450.2 0C412.7 0 375.3 0 337.8 0C300.3 0 262.7 0 225.2 0C187.7 0 150.3 0 112.8 0C75.3 0 37.7 0 18.8 0L0 0Z" fill="#F46703" stroke-linecap="round" stroke-linejoin="miter"></path></svg>